<svg viewBox="0 0 229.16732892000718 229.16732892000718" height="229.16732892000718" width="229.16732892000718">
    <g>
        <path d="M0 114.584c0-63.283 51.301-114.584 114.584-114.584 63.283 0 114.584 51.301 114.583 114.584 0 63.283-51.301 114.584-114.583 114.583-63.283 0-114.584-51.301-114.584-114.583zM114.584 222.964c59.857 0 108.38-48.523 108.38-108.38 0-59.857-48.523-108.38-108.38-108.38-59.857 0-108.38 48.523-108.38 108.38 0 59.857 48.523 108.38 108.38 108.38z"  fill="black" stroke="black">
        </path>
    </g>
    <g transform="matrix(1,0,0,1,59.512311588438685,46.58944378958006)">
        <svg viewBox="0 0 110.14270574312981 135.98844134084706" height="135.98844134084706" width="110.14270574312981">
            <g>
                <svg xmlns="http://www.w3.org/2000/svg" xml:space="preserve" viewBox="13.729999542236328 5.218999862670898 72.53999328613281 89.56199645996094" x="0" y="0" height="135.98844134084706" width="110.14270574312981" class="icon-b-0"  id="b-0">
                    <path d="M49.994 94.781l-4.461-9.183 8.919-0.001zM85.893 35.6l-1.414-2.441-2.988-1.859-7.788 4.531 4.776 8.248 7.791-4.531zM36.934 28.759l4.421 7.706h17.408l4.388-7.706zM29.423 53.408l8.702-15.086-4.434-7.731-13.167 22.817zM38.118 72.204l-8.695-15.072h-8.899l13.098 22.694zM32.649 55.271l8.703 15.08h17.416l8.7-15.08-8.7-15.082H41.352zM61.992 38.32l8.703 15.088h8.897L66.41 30.561zM58.768 74.074H41.336l-4.548 7.706h26.408zM70.695 57.132l-8.7 15.083 4.441 7.723 13.156-22.806zM14.107 35.841l1.414-2.441 2.987-1.859 7.789 4.531-4.776 8.248-7.791-4.531zM85.893 74.908l-1.414 2.44-2.988 1.859-7.788-4.531 4.776-8.248 7.791 4.531zM14.239 74.988l1.414 2.439 2.987 1.859 7.788-4.531-4.775-8.247-7.791 4.531zM56.675 10.903L52.96 6.14l-2.882-0.921-3.136 0.916-3.458 4.747 0.007 14.243 13.186 0.024z m-8.994 2.379h-1.544l-0.772-1.337 0.772-1.338h1.544l0.771 1.338z m6.343 0H52.48l-0.772-1.337 0.772-1.338h1.544l0.771 1.338z" fill="black">
                    </path>
                </svg>
            </g>
        </svg>
    </g>
</svg>